<?xml version="1.0" encoding="iso-8859-1"?>
<!-- Generator: Adobe Illustrator 18.1.1, SVG Export Plug-In . SVG Version: 6.00 Build 0)  -->
<svg version="1.1" id="Capa_1" xmlns="http://www.w3.org/2000/svg" xmlns:xlink="http://www.w3.org/1999/xlink" x="0px" y="0px"
	 viewBox="0 0 576.504 576.504" style="enable-background:new 0 0 576.504 576.504;" xml:space="preserve">
<g>
	<g>
		<path style="fill:#010002;" d="M437.58,45.901c21.216,13.056,40.494,28.356,57.834,45.9s31.926,36.822,43.758,57.834
			s21.012,43.248,27.54,66.708s9.792,47.634,9.792,72.521c0,32.641-5.508,63.853-16.524,93.637h-122.4V45.901L437.58,45.901z
			 M547.128,412.489c-11.016,22.848-24.684,43.554-41.004,62.115c-16.32,18.564-34.478,34.782-54.468,48.654
			c-19.992,13.872-41.616,24.99-64.872,33.354c-23.256,8.361-47.328,13.77-72.216,16.218h-52.632
			c-31.824-2.856-62.424-10.813-91.8-23.868V412.488L547.128,412.489L547.128,412.489z M0,288.865
			c0-26.927,3.672-52.938,11.016-78.029c7.344-25.092,17.748-48.654,31.212-70.686s29.886-41.922,49.266-59.67
			s41.106-32.742,65.178-44.982c0.408,0.408,3.366,3.06,8.874,7.956s12.24,10.812,20.196,17.748s16.422,14.484,25.398,22.644
			s17.442,15.81,25.398,22.95c7.956,7.14,14.688,13.158,20.196,18.054s8.67,7.752,9.486,8.568
			c-0.816,0.816-7.548,6.834-20.196,18.054c-12.648,11.22-28.254,25.194-46.818,41.922s-38.556,34.68-59.976,53.856
			s-41.514,37.23-60.282,54.162c-18.768,16.932-34.578,31.108-47.43,42.534c-12.852,11.424-19.89,17.747-21.114,18.972
			C3.468,337.621,0,312.938,0,288.865z M139.536,532.442c-26.928-16.318-50.49-36.211-70.686-59.671s-36.21-49.674-48.042-78.642
			c0.408-0.408,3.468-3.162,9.18-8.262c5.712-5.103,12.648-11.424,20.808-18.975c8.16-7.548,17.136-15.604,26.928-24.174
			c9.792-8.565,18.972-16.83,27.54-24.786c8.568-7.956,16.014-14.688,22.338-20.193c6.324-5.511,10.302-9.079,11.934-10.71
			L139.536,532.442L139.536,532.442z M406.979,219.71c-1.632-1.632-7.953-7.446-18.972-17.442
			c-11.016-9.996-24.479-22.134-40.392-36.414c-15.912-14.28-32.946-29.58-51.104-45.9c-18.156-16.32-35.088-31.518-50.796-45.594
			c-15.708-14.076-29.07-26.01-40.086-35.802s-17.136-15.3-18.36-16.524c16.728-5.712,33.456-10.2,50.184-13.464
			s33.661-4.896,50.797-4.896c41.616,0,81.192,8.568,118.728,25.704L406.979,219.71L406.979,219.71z"/>
	</g>
</g>
<g>
</g>
<g>
</g>
<g>
</g>
<g>
</g>
<g>
</g>
<g>
</g>
<g>
</g>
<g>
</g>
<g>
</g>
<g>
</g>
<g>
</g>
<g>
</g>
<g>
</g>
<g>
</g>
<g>
</g>
</svg>
