<?xml version="1.0" encoding="iso-8859-1"?>
<!-- Generator: Adobe Illustrator 19.0.0, SVG Export Plug-In . SVG Version: 6.00 Build 0)  -->
<svg version="1.1" id="Layer_1" xmlns="http://www.w3.org/2000/svg" xmlns:xlink="http://www.w3.org/1999/xlink" x="0px" y="0px"
	 viewBox="0 0 512 512" style="enable-background:new 0 0 512 512;" xml:space="preserve">
<g>
	<g>
		<circle cx="256.294" cy="311.734" r="62.981"/>
	</g>
</g>
<g>
	<g>
		<circle cx="369.191" cy="98.858" r="18.541"/>
	</g>
</g>
<g>
	<g>
		<circle cx="433.55" cy="98.858" r="18.541"/>
	</g>
</g>
<g>
	<g>
		<path d="M495.64,24.605H16.36C7.324,24.605,0,31.93,0,40.965c0,12.231,0,419.501,0,430.07c0,9.035,7.324,16.36,16.36,16.36h479.28
			c9.035,0,16.36-7.324,16.36-16.36c0-10.783,0-418.001,0-430.07C512,31.93,504.676,24.605,495.64,24.605z M384.207,333.537
			c0,7.086-5.745,12.829-12.829,12.829h-14.696c-1.634,4.961-3.627,9.758-5.952,14.36l10.395,10.394
			c5.011,5.011,5.011,13.133,0,18.144l-28.129,28.13c-5.011,5.011-13.134,5.011-18.144,0L304.458,407
			c-4.602,2.325-9.398,4.318-14.36,5.952v14.695c0,7.086-5.745,12.829-12.829,12.829h-39.782c-7.086,0-12.829-5.743-12.829-12.829
			V412.95c-4.96-1.634-9.758-3.627-14.359-5.952l-10.394,10.394c-5.011,5.011-13.133,5.011-18.144,0l-28.13-28.13
			c-5.011-5.011-5.011-13.134,0-18.144l10.394-10.394c-2.325-4.602-4.318-9.398-5.952-14.359h-14.696
			c-7.086,0-12.829-5.744-12.829-12.829v-39.782c0-7.086,5.743-12.829,12.829-12.829h14.696c1.634-4.96,3.627-9.757,5.952-14.359
			l-10.394-10.394c-5.011-5.011-5.011-13.134,0-18.144l28.13-28.13c5.011-5.011,13.134-5.011,18.144,0l10.394,10.394
			c4.602-2.325,9.398-4.318,14.359-5.952v-14.696c0-7.086,5.743-12.829,12.829-12.829h39.782c7.086,0,12.829,5.745,12.829,12.829
			v14.695c4.961,1.634,9.758,3.627,14.36,5.952l10.394-10.394c5.011-5.011,13.134-5.011,18.144,0l28.129,28.13
			c5.011,5.011,5.01,13.133,0,18.144l-10.395,10.394c2.325,4.602,4.318,9.398,5.952,14.36h14.696
			c7.086,0,12.829,5.745,12.829,12.829V333.537z M479.28,139.454H32.721v-82.13h446.56V139.454z"/>
	</g>
</g>
<g>
</g>
<g>
</g>
<g>
</g>
<g>
</g>
<g>
</g>
<g>
</g>
<g>
</g>
<g>
</g>
<g>
</g>
<g>
</g>
<g>
</g>
<g>
</g>
<g>
</g>
<g>
</g>
<g>
</g>
</svg>
