<?xml version="1.0" encoding="iso-8859-1"?>
<!-- Generator: Adobe Illustrator 19.0.0, SVG Export Plug-In . SVG Version: 6.00 Build 0)  -->
<svg version="1.1" id="Layer_1" xmlns="http://www.w3.org/2000/svg" xmlns:xlink="http://www.w3.org/1999/xlink" x="0px" y="0px"
	 viewBox="0 0 512 512" style="enable-background:new 0 0 512 512;" xml:space="preserve">
<g>
	<g>
		<path d="M478.39,281.768H33.61H0v99.711c0,9.281,7.524,16.805,16.805,16.805h192.14v20.422h-1.377
			c-30.13,0-54.641,24.512-54.641,54.642c0,9.281,7.524,16.805,16.805,16.805h172.534c0.011,0,0.017,0,0.022,0
			c9.282,0,16.805-7.524,16.805-16.805c0-0.353-0.01-0.704-0.031-1.052c-0.562-29.646-24.854-53.59-54.632-53.59h-1.377v-20.422
			h192.14c9.281,0,16.805-7.524,16.805-16.805v-99.711H478.39z M258.241,360.286c-11.592,0-21.036-9.476-21.036-21.036
			c0-11.618,9.418-21.036,21.036-21.036c11.618,0,21.036,9.418,21.036,21.036C279.276,351.014,269.64,360.286,258.241,360.286z"/>
	</g>
</g>
<g>
	<g>
		<path d="M16.805,21.847C7.524,21.847,0,29.371,0,38.652v209.505h27.735c1.183-7.114,3.171-13.953,5.875-20.422
			c7.28-17.408,19.716-32.112,35.4-42.224c14.031,11.523,31.284,17.955,49.042,17.955c18.174,0,35.829-6.72,50.033-18.756
			c22.166,13.795,38.074,36.679,42.525,63.447h28.585c0-11.491,0-216.23,0-226.311H16.805z M118.052,169.856
			c-26.544,0-48.063-25.128-48.063-56.126c0-30.997,21.519-56.125,48.063-56.125c26.544,0,48.063,25.128,48.063,56.125
			C166.115,144.729,144.597,169.856,118.052,169.856z"/>
	</g>
</g>
<g>
	<g>
		<path d="M495.195,21.847h-222.39c0,8.983,0,214.024,0,226.311h28.296c4.367-26.259,19.764-48.776,41.275-62.646
			c14.031,11.523,31.284,17.955,49.042,17.955c18.174,0,35.829-6.72,50.033-18.756c16.493,10.264,29.514,25.561,36.94,43.746
			c2.554,6.256,4.447,12.849,5.586,19.7H512V38.652C512,29.371,504.476,21.847,495.195,21.847z M391.418,169.856
			c-26.544,0-48.063-25.128-48.063-56.126c0-30.997,21.519-56.125,48.063-56.125s48.063,25.128,48.063,56.125
			C439.481,144.729,417.962,169.856,391.418,169.856z"/>
	</g>
</g>
<g>
</g>
<g>
</g>
<g>
</g>
<g>
</g>
<g>
</g>
<g>
</g>
<g>
</g>
<g>
</g>
<g>
</g>
<g>
</g>
<g>
</g>
<g>
</g>
<g>
</g>
<g>
</g>
<g>
</g>
</svg>
